<svg width="512" height="512" viewBox="0 0 512 512" fill="none" xmlns="http://www.w3.org/2000/svg">
<path d="M161.078 206.359C186.085 206.359 206.355 186.085 206.355 161.078C206.355 136.074 186.085 115.8 161.078 115.8C136.07 115.8 115.796 136.074 115.796 161.078C115.797 186.086 136.07 206.359 161.078 206.359Z" fill="#4B4B4B"/>
<path d="M350.918 206.359C375.926 206.359 396.2 186.085 396.2 161.078C396.2 136.074 375.926 115.8 350.918 115.8C325.911 115.8 305.641 136.074 305.641 161.078C305.641 186.086 325.91 206.359 350.918 206.359Z" fill="#4B4B4B"/>
<path d="M161.078 396.199C186.085 396.199 206.355 375.929 206.355 350.921C206.355 325.914 186.085 305.64 161.078 305.64C136.07 305.64 115.796 325.914 115.796 350.921C115.797 375.93 136.07 396.199 161.078 396.199Z" fill="#4B4B4B"/>
<path d="M350.918 396.199C375.925 396.199 396.197 375.927 396.197 350.92C396.197 325.913 375.925 305.641 350.918 305.641C325.911 305.641 305.639 325.913 305.639 350.92C305.639 375.927 325.911 396.199 350.918 396.199Z" fill="#4B4B4B"/>
</svg>
