<svg width="512" height="512" viewBox="0 0 512 512" fill="none" xmlns="http://www.w3.org/2000/svg">
<g clip-path="url(#clip0_264_1390)">
<path d="M253.617 295.527C278.624 295.527 298.896 275.255 298.896 250.248C298.896 225.241 278.624 204.969 253.617 204.969C228.61 204.969 208.338 225.241 208.338 250.248C208.338 275.255 228.61 295.527 253.617 295.527Z" fill="#4B4B4B"/>
<path d="M373.641 181.257C398.649 181.257 418.922 160.984 418.922 135.976C418.922 110.968 398.649 90.6948 373.641 90.6948C348.633 90.6948 328.36 110.968 328.36 135.976C328.36 160.984 348.633 181.257 373.641 181.257Z" fill="#4B4B4B"/>
<path d="M138.359 416.539C163.367 416.539 183.637 396.265 183.637 371.261C183.637 346.253 163.367 325.98 138.359 325.98C113.351 325.98 93.078 346.253 93.078 371.261C93.078 396.266 113.351 416.539 138.359 416.539Z" fill="#4B4B4B"/>
</g>
<defs>
<clipPath id="clip0_264_1390">
<rect width="512" height="512" fill="white"/>
</clipPath>
</defs>
</svg>
