<svg width="720" height="720" viewBox="0 0 720 720" fill="none" xmlns="http://www.w3.org/2000/svg">
<path d="M533.547 55.2731C497.147 58.2064 452.881 87.5398 428.081 125.14C411.547 150.073 394.081 189.14 382.081 227.406C377.947 240.873 373.547 253.273 372.347 255.14C371.014 257.006 369.414 260.606 368.481 263.14C367.681 265.673 366.081 268.873 365.014 270.34C363.281 272.606 363.014 272.606 358.081 268.74C350.481 262.74 343.014 259.273 333.947 257.54C327.281 256.34 322.747 256.473 305.681 259.006C294.614 260.606 282.081 263.006 277.947 264.34L270.347 266.606L265.681 263.406C261.414 260.473 260.081 260.206 249.014 260.873C224.347 262.206 206.481 267.673 193.947 277.806C189.414 281.54 185.147 284.34 184.481 283.94C183.814 283.54 180.081 282.34 176.214 281.273C161.681 277.54 141.681 284.206 130.614 296.473C123.281 304.606 110.881 323.14 104.614 335.273C99.2807 345.673 99.1473 344.606 109.014 375.806C117.547 403.14 117.814 407.54 111.814 429.006C104.881 453.406 103.014 463.14 103.014 475.006C103.014 491.673 103.681 492.74 153.814 547.273L165.547 560.073L159.814 566.206C145.547 581.14 145.414 609.14 159.681 621.673C172.614 632.873 209.014 648.74 239.681 656.34C297.814 670.74 357.547 668.473 381.547 651.14C392.081 643.406 398.214 628.206 395.147 617.006C393.414 610.606 393.281 610.606 412.347 601.54C424.881 595.54 427.681 593.406 438.481 582.473C452.081 568.74 463.947 551.806 470.081 537.406C473.681 528.873 474.214 526.34 474.214 515.14C474.214 499.273 467.681 472.74 457.814 449.14C454.214 440.34 450.347 429.406 449.147 424.873C446.214 413.673 444.747 393.806 446.081 382.606C448.747 358.34 470.481 312.206 494.881 279.54C506.614 263.673 519.281 251.806 545.947 231.673C576.614 208.473 580.747 204.606 594.881 185.806C612.481 162.34 619.014 145.54 619.014 123.14C619.014 81.6731 597.814 58.7398 556.347 55.5398C549.414 54.8731 539.147 54.8731 533.547 55.2731ZM563.814 68.3398C583.681 72.2064 597.281 82.0731 602.881 97.1398C609.281 113.94 607.681 139.006 599.281 157.006C594.481 167.14 577.681 189.54 568.214 198.606C564.214 202.206 551.414 212.473 539.681 221.14C497.681 252.473 477.947 275.806 455.014 321.673C436.347 358.74 431.281 379.273 433.947 406.473C435.547 422.606 438.081 432.34 445.814 451.406C452.481 467.806 460.747 497.006 462.347 509.14C464.481 527.006 453.147 550.073 431.014 572.873C421.547 582.606 419.414 584.073 392.481 598.206C376.747 606.34 363.281 614.206 362.481 615.406C360.614 618.473 362.881 622.34 366.747 622.873C368.214 623.14 371.947 622.073 374.881 620.606C381.547 617.14 382.614 617.14 383.681 620.473C385.147 625.006 381.681 634.073 376.481 639.273C366.614 649.14 339.681 654.606 306.747 653.406C263.947 651.806 224.614 642.34 188.881 625.14C172.881 617.406 166.747 613.006 163.547 606.873C160.747 601.54 160.881 589.006 163.547 582.473C165.814 577.006 171.814 569.806 174.081 569.806C174.747 569.806 177.414 571.673 179.947 573.94C187.014 580.073 193.014 582.606 195.681 580.473C199.814 577.006 198.081 572.873 189.814 566.606C185.547 563.273 179.681 557.94 176.881 554.74C173.947 551.54 165.681 542.34 158.347 534.34C112.481 484.073 114.214 486.873 115.414 469.806C115.947 463.54 116.747 456.606 117.414 454.473L118.614 450.473L121.414 456.74C127.947 471.54 139.147 478.606 155.681 478.34C167.281 478.073 177.414 474.34 186.081 467.14L192.614 461.806L197.147 465.406C200.747 468.073 203.147 468.873 208.081 468.74C211.547 468.606 225.147 468.34 238.347 468.073C257.947 467.806 263.147 467.273 266.614 465.406C273.947 461.54 278.214 462.34 285.281 469.406C292.881 476.74 301.014 482.073 315.814 489.54L326.614 495.006L337.547 514.34C348.614 533.673 351.681 537.14 355.681 533.806C359.014 531.006 357.947 526.206 351.014 514.073C347.414 507.673 344.347 502.073 344.347 501.673C344.347 501.406 347.814 501.273 352.081 501.54C365.681 502.34 373.681 498.473 370.214 492.74C369.014 490.873 366.214 490.34 355.281 489.806L341.814 489.14L322.614 479.54C297.814 466.873 289.147 459.406 281.547 443.673C271.947 423.94 271.547 408.34 279.947 389.406C284.347 379.54 288.214 376.473 296.214 376.473C304.881 376.606 309.414 379.006 343.014 402.073C359.547 413.406 380.481 427.14 389.681 432.606C401.014 439.273 409.281 445.406 415.814 451.806C425.414 461.406 426.481 463.406 446.214 504.473C449.147 510.74 456.347 508.873 456.347 501.94C456.347 497.273 443.814 470.206 436.214 458.473C426.081 443.006 417.414 435.273 394.347 421.806C387.814 417.94 377.147 411.14 370.881 406.873C358.481 398.34 354.614 392.873 352.347 380.606C351.281 375.006 351.814 373.273 357.814 359.14C363.414 346.34 364.214 343.273 363.014 340.74C361.014 336.206 355.014 337.14 352.481 342.473C346.214 355.406 338.881 373.673 338.214 378.073C337.681 380.873 337.014 383.14 336.614 383.14C336.347 383.14 331.681 380.206 326.481 376.74C313.147 367.54 309.947 366.073 300.881 365.14C289.414 363.806 283.014 365.94 276.614 373.273C263.014 388.606 258.347 418.74 266.481 438.606C267.681 441.54 267.947 443.14 267.281 442.473C264.881 440.073 259.147 422.34 257.014 410.873C254.214 395.006 253.681 376.606 255.681 361.14C256.747 353.806 259.014 336.34 260.881 322.34C264.347 295.54 267.547 284.473 272.881 279.673C278.881 274.34 321.814 267.273 333.281 269.806C341.414 271.673 350.747 277.14 352.347 280.873C354.614 286.606 357.681 308.206 357.414 316.74C357.147 326.073 358.747 329.806 363.014 329.806C364.347 329.806 365.947 329.006 366.747 328.073C367.547 327.14 372.481 309.54 377.681 289.14C393.814 225.14 404.347 195.006 424.347 155.14C445.814 112.473 482.747 79.6731 520.347 69.9398C531.414 67.0064 552.747 66.2064 563.814 68.3398ZM259.814 274.473C260.347 275.54 260.081 277.273 259.281 278.206C255.814 282.74 252.347 296.74 249.681 317.273C248.214 329.673 245.947 345.54 244.881 352.473C240.881 377.54 242.881 407.94 249.814 430.473C252.881 440.74 258.081 451.806 260.481 453.273C264.214 455.54 257.281 456.473 242.614 455.673C231.681 455.006 223.947 455.273 217.547 456.473C203.547 459.14 202.214 457.673 191.947 428.473C184.881 408.34 180.081 381.94 178.081 352.206C175.947 320.206 176.481 317.806 189.281 300.873C201.681 284.473 210.481 279.14 232.214 275.14C248.881 272.073 258.881 271.806 259.814 274.473ZM176.214 293.673C177.814 294.74 177.414 296.073 173.947 301.406C167.147 311.94 165.681 317.94 165.681 334.073C165.681 370.606 172.214 409.54 183.281 439.006L187.547 450.206L181.681 455.54C173.014 463.273 165.414 466.34 155.014 466.473C143.281 466.473 138.214 463.54 133.014 453.006C129.147 445.273 129.014 444.873 128.881 422.473C128.747 397.806 128.614 397.406 117.814 363.14L112.614 346.473L115.947 339.806C121.281 329.406 135.681 308.34 141.414 302.74C144.214 299.94 149.547 296.606 153.147 295.14C159.947 292.473 173.014 291.673 176.214 293.673Z" fill="black"/>
</svg>
