<svg width="720" height="720" viewBox="0 0 720 720" fill="none" xmlns="http://www.w3.org/2000/svg">
<path d="M289.839 46.9047C284.639 48.7713 278.639 52.7713 272.505 58.5047C259.439 70.638 231.572 134.905 216.639 187.438C214.505 194.771 208.772 221.838 201.039 261.438C198.639 273.171 196.505 283.171 196.239 283.571C195.172 285.438 188.772 286.105 186.905 284.638C184.372 282.505 176.105 256.238 175.172 247.305C174.372 239.571 173.439 220.105 172.239 183.438C171.439 156.905 170.372 148.771 166.372 140.505C160.639 128.238 151.972 123.305 136.505 123.305C116.105 123.305 103.572 135.571 92.7721 166.105C83.9721 191.305 84.2387 202.505 95.9721 333.438C97.0387 346.638 97.0387 353.305 95.8387 361.705C94.3721 372.638 86.1054 398.371 78.3721 416.771C71.9721 431.971 67.0387 447.838 63.7054 464.771C60.2387 482.371 60.5054 496.771 64.9054 512.105C66.3721 517.171 67.4387 521.438 67.3054 521.571C67.1721 521.571 63.8387 523.438 59.9721 525.438C48.3721 531.705 40.6387 542.638 36.3721 559.038C31.7054 576.771 38.2387 587.971 66.9054 611.305C95.0387 634.105 119.972 647.838 151.039 657.305C191.572 669.705 221.572 675.971 241.039 675.971C250.505 676.105 253.572 675.438 259.705 672.638C273.972 665.971 280.372 657.305 281.839 642.371L282.772 634.371L315.572 633.438C364.639 631.838 502.505 633.705 527.705 636.105C539.039 637.305 555.972 638.505 565.172 639.038C580.772 639.705 582.505 639.571 588.105 636.905C596.239 632.905 603.172 625.038 608.372 613.571C619.172 590.238 616.239 573.038 599.039 557.038C577.839 537.305 557.172 532.771 493.039 533.438C475.039 533.571 458.905 534.105 457.305 534.505C455.572 535.038 448.372 535.705 441.305 536.238C419.572 537.705 404.639 532.238 403.039 522.371C402.639 519.705 401.439 515.705 400.239 513.571C398.372 509.838 398.505 509.571 411.039 490.638C432.105 458.638 445.305 442.771 473.705 415.438C513.705 376.771 533.439 363.438 641.305 301.438C664.372 288.105 670.639 283.571 676.239 275.705C684.639 264.371 687.439 243.305 682.772 228.638C678.372 215.171 660.372 200.638 636.372 191.171C627.039 187.571 624.105 186.905 612.372 186.905C590.239 186.638 588.905 187.571 521.839 246.638C476.639 286.238 406.772 338.105 398.505 338.105C396.905 338.105 394.105 336.638 392.372 334.771C388.372 330.905 387.839 322.238 391.039 314.638C392.772 310.505 425.039 262.371 484.105 175.705C504.372 146.105 518.905 122.905 521.839 115.838C529.305 98.1047 513.705 75.438 483.839 60.5047C473.439 55.3047 471.705 54.9047 461.839 54.9047C452.639 54.9047 449.972 55.438 443.705 58.638C434.772 63.1713 428.372 68.3713 415.839 81.038C402.639 94.3713 394.372 106.771 372.639 145.438C357.039 173.305 321.572 246.238 316.239 261.438C315.705 262.905 313.039 269.038 310.105 275.038C305.705 284.505 304.372 286.105 300.239 287.438C294.239 289.438 292.105 288.505 290.639 283.171C289.439 278.238 291.705 268.505 304.505 224.638C308.639 210.371 312.639 196.638 313.305 194.105C317.039 180.905 331.172 136.105 337.705 116.905C346.505 91.5713 347.705 83.438 344.505 74.9047C340.505 64.3713 326.239 52.238 312.105 47.3047C303.439 44.3713 297.039 44.238 289.839 46.9047ZM306.505 58.1047C314.105 60.238 327.172 69.438 331.172 75.3047C335.972 82.638 335.305 86.238 323.705 120.638C309.972 161.438 283.972 249.171 279.039 271.705L276.772 281.971L280.239 289.438C283.039 295.571 284.639 297.305 289.039 299.171C292.105 300.505 294.372 302.371 294.372 303.571C294.372 306.638 297.705 309.038 301.305 308.505C305.839 307.838 316.639 290.638 326.372 268.371C351.572 211.038 369.972 173.971 393.172 133.838C407.572 109.171 415.172 98.638 427.839 86.1047C448.505 65.7047 460.505 62.238 478.905 71.438C496.505 80.3713 511.705 95.838 511.705 105.038C511.705 111.705 503.305 125.838 473.439 169.705C406.372 268.238 383.705 301.971 381.305 306.771C373.172 323.038 376.239 340.105 388.772 347.171C394.905 350.505 400.505 350.905 407.039 348.238C414.239 345.171 444.639 324.105 472.372 302.905C496.905 283.971 504.372 277.838 553.039 235.438C593.172 200.505 599.572 196.771 616.105 198.771C638.372 201.171 667.039 219.171 671.705 233.438C673.839 239.838 672.772 255.705 669.705 262.905C666.239 271.305 660.372 276.105 637.705 289.305C625.972 296.238 603.839 309.171 588.372 318.105C552.372 339.171 527.039 355.038 513.705 365.171C475.039 394.371 437.039 432.371 413.439 465.571C399.305 485.305 378.372 519.438 378.372 522.771C378.372 528.238 384.372 530.771 387.705 526.771C390.105 523.838 391.305 524.238 392.105 528.505C393.305 534.105 397.439 538.505 405.305 542.371C418.505 549.038 425.439 549.571 459.039 546.905C501.305 543.438 545.972 545.038 565.705 550.771C578.239 554.371 594.639 566.905 599.839 577.038C606.505 590.105 598.639 615.171 585.039 624.505C580.639 627.571 579.572 627.705 565.705 626.905C557.705 626.505 542.105 625.171 531.039 623.971C514.505 622.238 490.505 621.705 391.705 621.438L272.372 621.038L256.372 617.038C247.572 614.771 236.772 611.705 232.505 610.105C228.105 608.638 222.639 607.438 220.239 607.438C216.505 607.438 215.572 608.105 214.905 610.905C214.372 613.038 214.639 614.905 215.839 616.105C218.905 619.038 260.772 631.438 267.439 631.438C269.972 631.438 270.372 632.105 270.372 636.371C270.372 644.505 267.705 651.705 263.172 656.238C257.439 661.971 246.105 665.305 236.639 664.105C198.105 659.171 150.772 646.638 124.105 634.105C94.9054 620.371 51.3054 585.838 47.9721 573.705C45.5721 565.305 50.6387 550.238 58.9054 541.038C61.5721 537.971 71.4387 532.105 72.3721 533.038C72.6387 533.305 76.5054 540.771 81.0387 549.838C89.5721 567.038 93.4387 571.038 97.7054 567.438C98.7721 566.505 99.7054 564.638 99.7054 563.171C99.7054 561.838 95.4387 552.105 90.3721 541.705C76.9054 514.638 73.9721 504.771 73.8387 487.438C73.8387 471.171 78.5054 448.238 85.3054 432.371C93.3054 413.171 104.905 379.838 107.039 369.438C109.439 357.438 109.439 343.171 107.039 321.438C106.105 313.305 104.905 301.705 104.505 295.438C103.305 280.371 102.505 270.638 100.505 246.771C96.2387 197.171 98.2387 179.438 111.039 154.105C118.239 139.971 124.772 135.438 138.239 135.438C147.839 135.438 153.039 139.038 156.239 147.838C159.039 155.571 159.439 158.905 160.372 189.438C162.372 250.638 164.239 264.105 173.572 285.305C176.505 291.971 182.239 298.105 185.572 298.105C186.639 298.105 187.039 299.838 186.639 302.771C186.105 306.771 186.505 307.438 189.439 308.105C193.439 309.171 200.239 305.971 203.039 301.571C206.105 297.038 207.039 292.905 213.705 258.771C223.839 207.305 227.439 192.105 235.305 168.105C247.039 131.971 269.839 80.5047 279.039 69.3047C283.439 63.9713 295.305 56.7713 299.572 56.7713C300.772 56.7713 303.839 57.438 306.505 58.1047Z" fill="black"/>
<path d="M277.705 420.371C267.039 422.771 247.039 429.704 240.372 433.438C220.105 444.638 182.239 473.438 175.439 482.638C170.105 489.971 161.039 508.504 161.039 512.371C161.039 515.704 165.172 518.504 168.372 517.304C169.572 516.771 173.039 511.304 176.105 505.038C179.172 498.771 184.372 490.771 187.572 487.038C197.572 475.971 237.839 447.038 251.972 440.771C255.039 439.438 263.972 436.504 271.572 434.238C287.705 429.571 290.772 426.771 285.572 421.571C283.439 419.438 282.505 419.304 277.705 420.371Z" fill="black"/>
</svg>
