<svg width="512" height="512" viewBox="0 0 512 512" fill="none" xmlns="http://www.w3.org/2000/svg">
<path d="M155.324 200.605C180.331 200.605 200.603 180.333 200.603 155.326C200.603 130.319 180.331 110.047 155.324 110.047C130.317 110.047 110.045 130.319 110.045 155.326C110.045 180.333 130.317 200.605 155.324 200.605Z" fill="#4B4B4B"/>
<path d="M356.672 200.606C381.68 200.606 401.953 180.336 401.953 155.328C401.953 130.32 381.68 110.047 356.672 110.047C331.668 110.047 311.394 130.32 311.394 155.328C311.394 180.336 331.668 200.606 356.672 200.606Z" fill="#4B4B4B"/>
<path d="M155.324 401.953C180.331 401.953 200.603 381.68 200.603 356.674C200.603 331.667 180.331 311.395 155.324 311.395C130.317 311.395 110.045 331.667 110.045 356.674C110.045 381.68 130.317 401.953 155.324 401.953Z" fill="#4B4B4B"/>
<path d="M356.672 401.953C381.68 401.953 401.953 381.683 401.953 356.676C401.953 331.668 381.68 311.394 356.672 311.394C331.668 311.394 311.394 331.668 311.394 356.676C311.394 381.683 331.668 401.953 356.672 401.953Z" fill="#4B4B4B"/>
<path d="M256 307.035C281.008 307.035 301.281 286.762 301.281 261.754C301.281 236.746 281.008 216.473 256 216.473C230.992 216.473 210.719 236.746 210.719 261.754C210.719 286.762 230.992 307.035 256 307.035Z" fill="#4B4B4B"/>
</svg>
