<svg width="720" height="720" viewBox="0 0 720 720" fill="none" xmlns="http://www.w3.org/2000/svg">
<path d="M219.025 16.7642C199.691 21.2975 171.825 47.0308 161.158 70.0975C152.491 89.0308 148.091 116.364 149.291 141.964C150.091 156.631 154.225 195.031 156.758 211.964C157.425 216.364 158.625 224.097 159.425 229.297C161.691 244.897 168.891 278.231 172.358 290.364C173.025 292.497 172.758 292.631 170.491 291.431C167.025 289.564 154.091 289.564 146.358 291.431C129.425 295.297 113.025 308.497 107.825 322.364C104.091 332.364 104.091 336.764 108.358 349.964C110.225 355.964 111.825 361.831 111.825 363.031C111.958 364.231 107.425 371.831 101.691 379.831C81.558 407.964 76.0914 418.631 75.158 431.031C73.4247 457.431 86.2247 514.364 100.091 541.831L103.425 548.231L98.0914 552.097C88.0914 559.431 77.8247 575.431 75.6914 586.764C72.358 604.364 87.158 632.897 108.758 650.764C137.958 675.164 185.158 697.831 214.625 701.831C243.558 705.831 276.758 701.564 296.625 691.431C314.091 682.497 323.158 660.764 315.558 645.964C313.958 642.897 313.025 640.097 313.291 639.831C313.691 639.431 320.091 637.697 327.691 635.964C364.491 627.564 384.625 614.631 402.358 588.231C424.758 554.631 429.958 533.297 428.358 481.964C427.425 452.364 428.225 446.764 436.491 430.631C448.091 407.831 465.958 388.764 516.225 345.964C545.158 321.297 555.558 313.164 581.425 294.497C591.558 287.297 603.958 277.564 608.758 273.164C625.025 257.964 640.625 233.031 644.091 216.364C651.558 180.631 620.758 141.964 584.758 141.964C563.158 141.964 541.691 156.231 504.225 195.164C480.225 220.097 464.625 239.031 442.225 269.964C418.891 302.097 385.958 349.564 380.625 358.497C378.625 361.831 376.358 364.631 375.691 364.631C374.891 364.631 372.225 362.764 369.558 360.497C364.225 355.697 364.091 354.631 366.758 336.497C370.358 312.497 373.158 303.431 392.491 251.297C397.158 238.497 403.958 220.097 407.558 210.631C411.025 201.031 417.825 182.764 422.625 169.964C427.425 157.164 433.825 139.697 436.891 131.297C439.958 122.897 444.091 111.164 446.358 105.297C453.691 85.0308 454.091 78.2308 448.091 67.6975C437.825 49.8308 395.825 34.0975 373.825 39.9642C363.691 42.6308 355.825 48.0975 348.491 57.6975C324.491 88.8975 308.358 131.964 299.691 187.964C297.025 204.764 296.091 211.964 290.225 256.631C283.425 308.897 280.891 322.097 277.425 325.964C275.825 327.564 274.625 327.031 268.891 321.297C259.691 312.231 257.158 306.497 255.558 290.631C253.291 267.697 253.025 261.164 252.091 211.297C251.158 160.764 251.958 146.497 257.691 108.631C263.691 69.2975 264.358 53.0308 260.758 38.8975C256.891 24.2308 235.558 12.8975 219.025 16.7642ZM238.225 30.7642C240.091 31.6975 243.291 34.2308 245.425 36.4975C251.958 43.2975 252.491 61.1642 247.425 94.6308C240.891 137.831 239.291 156.231 239.425 193.164C239.425 228.897 239.825 239.964 242.358 275.964C244.758 309.431 246.225 314.364 257.425 326.497C260.891 329.964 263.558 333.164 263.558 333.431C263.558 334.631 252.625 336.631 249.825 335.964C247.825 335.431 245.558 336.097 243.558 337.697C240.625 339.964 240.491 340.764 241.958 343.831C243.558 347.431 245.425 347.964 255.825 347.564C258.491 347.431 263.958 345.831 268.091 344.097C272.225 342.231 275.558 341.297 275.558 341.964C275.558 342.631 276.758 343.831 278.225 344.631C282.758 347.031 285.691 344.097 288.625 334.364C294.358 315.431 295.825 307.164 301.691 262.897C313.958 168.764 316.358 156.364 328.225 121.964C337.958 94.0975 355.025 64.8975 366.491 56.6308C374.358 50.8975 380.625 49.5642 391.425 51.1642C412.758 54.4975 433.825 65.4308 438.625 75.5642C441.158 80.8975 440.091 87.2975 434.358 102.631C432.225 108.497 427.558 121.031 424.225 130.631C420.758 140.097 411.558 165.297 403.558 186.631C360.091 303.297 358.758 307.164 355.025 334.097C353.825 342.631 352.358 348.364 350.891 349.964C347.291 353.964 349.291 358.097 358.891 367.031C371.291 378.631 379.158 380.097 385.691 372.097C387.558 369.831 393.958 360.497 400.091 351.297C414.891 328.897 454.625 272.764 468.625 254.631C494.091 221.831 536.091 177.831 552.625 166.764C568.758 156.097 575.691 153.564 586.758 154.231C592.758 154.631 598.625 156.097 602.891 158.097C611.558 162.097 623.158 173.964 628.225 183.964C631.825 191.164 632.225 193.297 632.225 204.631C632.225 216.497 631.958 217.964 627.425 227.297C621.425 239.697 609.025 256.497 599.158 265.564C595.025 269.297 580.891 280.097 567.958 289.564C538.225 310.897 499.291 343.297 465.291 374.897C443.291 395.297 427.158 417.831 419.825 438.231C416.491 447.831 416.358 448.497 416.091 488.631C415.825 534.231 415.425 537.031 406.091 556.631C383.558 604.231 363.291 618.364 304.225 627.964C293.291 629.831 279.291 631.297 273.291 631.297C263.958 631.297 261.825 631.697 259.558 633.964C256.225 637.297 256.225 638.231 259.558 641.297C261.958 643.431 263.958 643.564 277.825 642.897C286.491 642.497 294.891 641.697 296.491 641.164C298.891 640.497 299.958 641.431 302.891 647.431C314.891 670.897 291.825 688.364 245.558 690.897C213.425 692.631 186.491 684.897 148.891 663.564C107.425 639.964 83.6914 610.097 88.0914 586.764C89.2914 580.631 98.4914 567.031 105.025 561.831L110.358 557.697L120.758 567.831C126.491 573.431 131.691 577.964 132.225 577.964C134.758 577.964 138.225 574.897 138.225 572.497C138.225 570.897 133.691 564.897 127.958 558.497C114.491 543.964 109.025 534.631 103.158 517.031C92.8914 485.831 87.558 459.964 87.4247 439.031C87.4247 427.697 87.8247 425.297 90.8914 418.897C95.0247 410.631 114.358 381.697 116.358 381.031C117.025 380.897 121.558 393.164 126.625 408.364C141.025 452.764 150.491 465.164 173.958 470.364C181.425 472.097 181.558 472.231 186.491 481.297C200.225 506.231 217.291 519.964 249.558 531.964C256.891 534.631 264.491 537.431 266.625 538.231C271.691 540.097 298.758 568.764 305.825 579.564C311.691 588.764 313.291 589.964 317.291 588.897C324.491 587.031 319.025 574.364 303.691 557.697C295.558 548.897 295.291 548.497 297.558 545.964C302.358 540.631 298.625 537.297 278.225 529.564C273.425 527.697 265.425 524.897 260.225 523.297C255.158 521.697 244.625 517.431 236.891 513.697C225.025 507.964 221.291 505.431 212.758 496.764C202.491 486.231 192.891 470.497 192.891 463.831C192.891 462.097 192.358 460.631 191.691 460.631C190.891 460.631 189.958 457.831 189.425 454.364C187.558 441.564 194.225 428.631 202.891 428.631C207.291 428.631 237.691 438.897 284.225 455.964L312.225 466.231L338.891 488.631C353.558 501.031 369.425 514.364 374.225 518.497C382.891 525.831 386.891 527.431 389.958 524.364C394.358 519.964 392.491 518.097 346.491 479.564C332.358 467.697 319.158 457.164 317.158 456.097C313.691 454.364 273.958 439.564 241.558 427.964C225.958 422.364 225.558 422.231 224.758 417.831C224.091 413.431 215.025 387.431 212.758 383.164C210.091 377.964 202.225 379.431 202.225 385.164C202.225 387.697 207.425 403.297 212.225 415.564C213.025 417.431 212.225 417.697 205.291 417.031C199.425 416.497 196.225 416.897 193.158 418.497C183.558 423.431 175.825 440.364 177.291 453.031L178.091 459.564L174.491 458.631C158.225 454.631 149.691 442.097 137.691 405.297C129.558 379.964 116.891 336.497 116.891 333.697C116.891 329.164 122.491 319.297 127.825 314.497C135.291 307.831 146.225 303.164 156.225 302.231C163.291 301.697 165.291 302.097 168.625 304.364C176.225 309.831 179.691 316.364 186.491 337.697C190.091 349.164 193.825 359.431 194.891 360.497C197.158 362.897 203.025 361.431 203.825 358.364C204.225 357.031 202.758 350.497 200.625 343.964C181.958 285.297 172.225 241.831 165.691 187.297C165.291 183.964 164.225 175.564 163.425 168.631C160.891 148.231 161.158 115.297 163.958 101.297C168.625 78.4975 177.825 61.4308 193.691 46.6308C211.825 29.5642 225.958 24.4975 238.225 30.7642Z" fill="black"/>
</svg>
