<svg width="720" height="720" viewBox="0 0 720 720" fill="none" xmlns="http://www.w3.org/2000/svg">
<path d="M342.501 25.7784C329.168 29.3784 314.235 40.9784 305.301 54.8451C296.901 67.7784 285.168 97.6451 274.901 132.445C266.501 160.578 261.568 193.112 259.301 233.778C258.901 242.578 258.235 251.912 258.101 254.445C257.835 256.978 257.701 263.512 257.568 268.845L257.435 278.578L253.168 276.312C246.901 272.978 224.635 274.445 208.768 279.112C175.035 288.978 160.768 302.312 159.035 325.112L158.368 334.445H152.501C144.901 334.445 132.101 337.778 123.301 341.912C103.035 351.512 87.4346 383.245 92.2346 404.712C93.3012 408.978 93.9679 412.978 93.8346 413.778C93.7012 414.445 91.3012 421.378 88.2346 429.112C82.2346 445.112 78.1012 467.245 79.1679 478.045C79.9679 485.778 91.8346 514.978 107.168 546.978L116.635 566.712L109.568 572.845C97.7012 582.978 94.3679 590.045 94.6346 604.712C94.9012 620.712 102.368 635.245 115.835 645.512C138.368 662.578 168.235 677.378 198.768 686.312C229.168 695.112 280.368 699.378 304.635 695.112C329.035 690.712 345.568 681.912 351.701 669.912C353.968 665.378 353.435 652.978 350.635 649.645C348.768 647.245 348.368 647.645 357.435 643.112C389.701 626.978 412.635 600.578 425.035 565.512L428.768 555.112V511.112C428.901 460.445 428.768 461.245 441.435 435.112C454.235 408.712 471.701 384.178 491.035 365.645C503.835 353.378 536.635 326.178 550.101 316.845C555.968 312.712 570.635 303.245 582.768 295.778C611.301 278.178 617.568 273.378 624.901 263.378C637.168 246.712 641.701 233.912 641.568 216.578C641.568 201.778 639.035 191.912 632.101 177.512C622.635 158.178 608.635 149.112 588.235 149.112C575.168 149.112 566.235 151.912 543.435 163.378C522.235 174.045 511.435 180.178 494.101 191.778C459.035 215.245 437.701 236.845 395.568 291.778C369.568 325.512 348.101 350.712 345.835 349.912C344.768 349.378 342.368 348.712 340.635 348.312C337.835 347.645 337.435 346.712 337.435 341.645C337.435 334.312 350.235 283.245 359.968 251.778C362.768 242.578 368.635 223.778 376.768 198.445C388.235 162.578 404.101 110.312 406.635 100.445C414.635 68.5784 412.635 53.1117 398.768 40.7117C383.301 26.7117 360.635 20.7117 342.501 25.7784ZM376.635 40.8451C386.101 45.2451 393.968 51.7784 396.901 57.3784C399.035 61.5117 399.568 71.3784 398.101 82.0451C396.368 94.8451 388.768 120.712 362.768 202.445C339.835 274.578 325.435 327.245 325.435 338.978C325.435 342.845 324.901 343.778 322.768 343.778C321.168 343.778 319.435 345.112 318.501 347.112C316.368 351.778 319.035 354.178 330.235 357.645C337.701 360.045 339.301 360.978 339.435 363.512C339.835 368.045 343.435 371.245 346.635 369.645C347.968 368.978 353.301 363.378 358.368 357.245C363.301 351.112 371.435 341.112 376.368 335.245C381.301 329.245 390.901 317.245 397.701 308.578C446.368 246.045 462.368 228.845 492.101 207.778C515.568 191.245 550.501 171.778 570.501 164.312C587.301 157.912 604.635 161.112 614.635 172.445C627.835 187.512 633.168 215.378 626.635 234.845C622.768 246.178 613.168 260.178 604.635 266.978C600.635 270.045 589.168 277.645 579.168 283.778C549.568 302.045 536.235 311.378 514.501 329.112C473.301 362.845 453.701 385.912 432.501 425.112C427.968 433.512 419.568 454.178 417.968 461.112C417.301 463.645 416.768 485.512 416.768 509.778V553.778L412.501 564.712C405.968 581.912 396.768 596.178 384.101 609.112C366.501 626.978 347.035 637.112 314.768 645.112C302.368 648.178 297.835 651.512 300.101 655.778C302.368 660.045 305.968 659.912 322.768 655.112C331.835 652.578 339.301 650.578 339.568 650.712C339.701 650.978 340.368 654.178 340.768 657.912L341.701 664.578L335.435 670.178C328.235 676.445 314.101 681.778 299.435 683.645C280.235 686.178 232.768 682.578 210.501 676.978C178.901 669.112 141.835 651.245 121.168 634.178C112.235 626.712 106.768 615.378 106.768 604.178C106.768 599.378 107.568 594.045 108.635 591.912C110.768 588.045 120.635 578.445 122.635 578.445C123.301 578.445 126.768 583.512 130.235 589.778C134.635 597.778 137.568 601.378 139.701 601.912C143.168 602.845 146.768 600.578 146.768 597.378C146.768 596.312 141.435 585.645 134.768 573.778C116.768 541.512 92.5012 487.645 91.1679 477.245C90.2346 470.045 93.9679 448.445 98.1012 436.578C102.635 424.045 101.701 423.378 114.368 448.445C129.835 478.978 136.635 487.778 148.635 493.245C151.701 494.578 156.501 495.778 159.568 495.778C167.301 495.778 178.635 492.045 182.101 488.312L185.035 485.112L188.235 488.578C194.901 495.645 214.635 507.512 229.835 513.512L245.301 519.512L258.368 533.245C295.701 572.712 298.101 574.845 301.701 574.045C306.101 572.845 307.435 569.512 304.901 565.912C303.968 564.312 295.968 555.778 287.435 546.712C278.768 537.645 270.501 528.712 269.035 526.978C266.635 523.778 266.635 523.512 268.768 521.912C270.101 520.978 270.901 518.978 270.501 516.978C270.235 514.445 268.901 513.378 264.101 512.045C249.835 508.178 231.035 501.645 223.968 498.312C206.501 490.045 192.501 478.045 187.301 467.112C180.901 453.512 184.235 433.245 193.701 428.312C197.435 426.445 198.235 426.445 207.168 429.645C212.501 431.512 222.635 434.045 229.701 435.112C249.835 438.312 267.701 443.245 279.968 449.112C295.168 456.445 322.635 474.845 359.435 502.445C391.968 526.845 393.435 527.778 396.768 527.778C399.968 527.778 402.235 521.778 399.968 518.845C397.168 515.512 336.501 470.312 318.101 458.045C309.301 452.178 296.368 444.312 289.435 440.712L276.768 434.178L276.501 421.245C276.368 408.178 271.301 348.978 269.968 344.845C268.635 340.445 261.168 340.312 259.568 344.712C259.168 345.778 259.968 359.378 261.301 374.845C265.168 416.178 265.835 427.378 264.901 428.845C264.368 429.778 262.635 429.778 259.701 428.978C257.435 428.312 247.035 426.178 236.768 424.312C226.501 422.445 213.568 419.512 208.101 417.645C199.435 414.578 197.568 414.312 193.035 415.778C190.235 416.578 187.568 417.112 187.301 416.845C186.768 416.178 173.968 360.978 172.235 351.245C170.368 340.845 170.368 324.045 172.235 318.312C174.501 311.778 179.568 305.512 185.835 301.512C198.235 293.645 224.368 286.445 240.235 286.445C247.035 286.445 248.368 286.845 250.235 289.645C253.435 294.578 256.101 306.178 256.101 315.378C256.101 320.978 256.768 324.178 258.235 325.645C260.768 328.178 264.635 328.445 266.501 326.045C267.168 325.245 268.235 312.445 268.635 297.778C271.035 223.645 273.968 189.378 280.768 158.978C287.835 127.778 302.901 83.6451 312.768 65.7784C317.168 57.7784 329.701 44.5784 336.101 41.1117C348.101 34.5784 363.168 34.5784 376.635 40.8451ZM158.235 347.512C158.901 348.045 161.168 356.312 163.168 365.912C169.701 397.245 175.835 420.312 178.101 421.912C179.968 423.245 179.835 424.178 176.501 430.578C173.168 436.978 172.768 439.112 172.768 451.112C172.768 462.845 173.168 465.378 176.368 472.045C179.701 479.112 179.701 479.778 177.568 479.778C176.235 479.778 172.901 480.712 170.368 481.778C163.035 484.845 155.968 484.312 150.101 480.312C141.968 474.845 138.901 470.312 126.501 445.778C122.768 438.445 116.501 426.978 112.635 420.445C108.768 413.778 104.901 405.912 104.101 402.712C100.101 387.512 112.501 361.245 127.301 353.512C137.701 348.045 154.368 344.845 158.235 347.512Z" fill="black"/>
</svg>
