<svg width="720" height="720" viewBox="0 0 720 720" fill="none" xmlns="http://www.w3.org/2000/svg">
<path d="M419.866 34.1451C405.866 39.3451 397.066 46.1451 385.599 60.2784C369.333 80.2784 357.733 100.945 348.133 126.945C340.933 146.412 306.266 262.812 302.666 279.878C301.733 284.278 297.466 287.478 287.599 291.612L283.066 293.612L279.599 286.012L276.133 278.545L277.066 246.412C280.533 112.812 280.799 66.6784 278.133 57.8784C275.999 50.6784 267.466 42.0117 258.533 37.7451C239.066 28.4117 202.666 36.6784 185.066 54.1451C179.733 59.6117 177.733 62.8117 175.066 70.9451C172.133 80.2784 171.866 82.8117 171.866 109.612C171.866 125.345 172.266 145.478 172.933 154.278C173.999 171.612 177.466 215.878 178.399 225.612C178.799 228.945 179.733 240.278 180.533 250.945C181.333 261.612 182.266 271.078 182.533 271.878C185.866 281.878 157.333 237.078 147.999 217.612C144.666 210.678 137.999 193.878 133.199 180.412C128.533 166.945 123.466 154.145 122.133 151.745C119.199 146.545 110.799 141.878 102.799 140.812C89.8661 138.945 66.3994 150.012 58.7994 161.478C52.7994 170.545 51.5994 181.078 54.5327 200.678C57.5994 222.278 60.9327 232.678 76.5327 268.278C91.5994 303.078 102.266 331.078 105.199 343.078C107.733 354.012 107.733 366.412 105.199 380.412C102.533 394.812 101.333 398.545 94.9327 412.278C86.1327 431.212 80.9327 456.678 82.3994 474.812C83.5994 489.878 88.1327 502.945 99.9994 524.145C105.466 534.012 109.866 542.412 109.866 542.812C109.866 543.345 108.266 544.678 106.266 545.878C100.133 549.478 93.0661 557.878 90.1327 565.078C84.666 578.012 83.866 595.212 87.9994 606.278C95.3327 625.878 129.333 654.012 167.999 672.412C192.799 684.412 218.666 689.878 249.866 689.878C277.733 689.745 295.066 684.945 315.066 671.745C335.199 658.412 344.533 640.012 339.066 624.412C337.999 621.212 337.999 619.745 339.199 618.278C340.666 616.545 351.599 610.945 376.533 599.212C402.799 586.812 410.266 571.612 435.866 477.612C446.799 437.478 450.799 428.545 461.999 418.278C487.466 395.212 523.199 364.012 541.199 349.478C547.066 344.678 568.133 327.612 587.866 311.612C637.066 271.878 646.533 263.612 652.799 255.878C661.999 244.145 665.333 235.345 666.266 221.078C667.333 204.412 662.266 191.078 650.666 179.745C627.999 157.345 601.333 153.078 573.199 167.212C550.799 178.545 536.399 192.145 498.533 237.612C492.666 244.545 487.599 250.545 487.199 250.945C486.799 251.345 481.466 257.612 475.333 264.945C453.466 291.078 407.333 341.878 402.399 345.212C400.666 346.278 396.799 347.478 393.733 347.878C388.799 348.545 388.266 348.412 388.933 346.145C389.333 344.812 390.266 340.945 390.933 337.612C396.799 312.812 404.266 285.345 408.933 271.612C414.399 256.145 421.999 239.878 456.666 170.278C492.266 98.6784 496.399 88.4117 494.799 74.5451C492.933 59.0784 474.133 39.7451 454.666 33.2117C445.066 29.8784 429.866 30.4117 419.866 34.1451ZM457.866 47.7451C467.866 53.0784 479.999 65.3451 481.999 72.2784C483.333 76.8117 483.199 79.2117 480.799 88.9451C478.533 98.1451 471.333 113.878 443.999 168.678C425.333 206.145 407.199 243.478 403.733 251.612C397.599 266.412 386.133 304.278 380.533 328.945C378.666 336.812 376.399 343.212 374.933 344.678C371.733 347.878 371.866 350.012 375.999 354.812C383.466 363.745 401.199 362.545 413.066 352.145C420.799 345.212 467.333 293.345 491.199 264.945C508.666 244.145 517.333 234.012 529.866 219.612C550.799 195.612 564.933 184.145 583.866 175.478C590.666 172.412 593.733 171.745 603.866 171.745C614.799 171.612 616.666 172.012 624.533 175.878C635.199 181.212 644.799 189.345 649.199 196.945C655.466 207.478 655.599 226.278 649.599 238.945C647.999 242.145 642.399 249.078 637.333 254.278C628.666 262.945 617.999 271.745 557.866 320.278C519.866 350.945 471.333 392.545 453.066 410.412C438.266 424.812 437.599 426.412 417.199 498.945C405.733 539.478 399.066 558.812 392.799 568.945C386.266 579.612 381.733 582.945 358.533 594.278C345.466 600.678 327.733 610.812 316.533 618.278C295.866 632.012 291.199 635.745 291.199 638.412C291.199 640.678 294.933 644.278 297.199 644.278C298.133 644.278 305.066 640.145 312.666 634.945C327.333 625.078 328.533 624.945 328.533 633.478C328.533 647.878 310.666 664.145 284.666 673.345C274.933 676.812 273.333 676.945 248.533 676.945C226.133 676.945 220.533 676.412 208.533 673.745C185.333 668.545 165.733 659.745 143.599 644.812C117.999 627.478 105.066 614.812 99.7327 602.145C94.9327 590.678 98.6661 569.078 106.933 560.945C111.866 555.878 116.933 552.678 117.466 554.278C118.799 558.412 133.599 582.278 135.466 583.478C138.533 585.345 142.399 583.078 142.933 579.078C143.199 577.345 136.799 564.678 125.733 545.345C96.9327 494.812 93.7327 486.545 94.5327 466.278C95.1994 449.078 99.1994 432.278 106.266 416.945C115.333 397.078 118.399 383.478 118.399 361.612C118.533 347.745 117.999 341.745 116.133 335.612C111.866 321.878 99.1994 289.878 88.1327 264.945C82.266 251.745 76.1327 237.212 74.3994 232.678C66.5327 211.745 62.9327 178.812 67.5994 170.012C72.1327 161.345 92.3994 151.345 102.133 152.945C104.933 153.478 108.399 154.812 109.866 156.012C111.599 157.478 115.866 167.612 121.066 182.278C135.733 223.745 140.533 233.345 168.799 275.878C181.199 294.545 185.866 302.678 185.866 305.612C185.866 309.478 189.733 314.945 192.399 314.945C193.066 314.945 194.666 313.878 195.999 312.678C197.733 310.812 197.999 308.812 197.466 302.412C197.066 297.878 195.199 276.545 193.333 254.945C191.466 233.345 189.599 212.545 189.199 208.945C188.933 205.212 187.999 193.612 187.199 182.945C186.399 172.278 185.466 161.212 185.199 158.278C184.933 155.345 184.266 139.745 183.733 123.612C182.266 74.8117 185.599 64.5451 205.733 54.4117C216.933 48.8117 226.133 46.4117 237.199 46.4117C256.133 46.2784 265.999 53.7451 267.866 69.7451C268.799 77.3451 267.866 150.278 266.533 174.945C266.133 181.212 265.599 207.612 265.066 233.612C264.266 279.612 264.266 281.078 267.066 288.012C270.533 296.678 270.533 296.278 266.666 296.278C263.066 296.278 259.199 299.478 259.199 302.278C259.199 303.345 260.666 305.078 262.266 306.278C264.933 308.012 267.066 308.145 275.999 306.812C281.733 306.012 288.533 304.545 291.066 303.478C293.466 302.412 295.733 301.612 295.866 301.612C296.133 301.612 296.266 305.345 296.133 309.878C295.866 318.012 295.999 318.278 299.333 318.678C301.199 318.945 303.466 318.278 304.266 317.345C305.066 316.278 308.266 305.878 311.199 294.278C317.466 270.412 332.666 217.078 344.666 177.345C360.533 124.412 367.466 107.612 383.199 84.0117C397.866 61.6117 411.599 49.2117 427.199 44.1451C429.066 43.4784 435.066 43.2117 440.533 43.3451C448.666 43.7451 451.999 44.5451 457.866 47.7451Z" fill="black"/>
<path d="M184.933 392.412C174.399 395.478 163.199 418.812 163.199 437.745C163.199 462.545 186.666 493.078 213.599 503.212C221.333 506.145 222.266 507.078 236.533 524.945C244.666 535.212 255.199 549.078 259.866 555.745C270.533 570.678 273.199 573.345 276.133 571.478C281.733 568.012 281.333 566.145 273.199 554.012C268.799 547.612 259.733 535.345 253.066 526.812L240.799 511.345L245.066 510.145C248.266 509.212 249.333 508.012 249.599 505.345C250.133 500.812 248.666 500.145 231.999 496.278C214.133 492.145 205.199 487.345 194.266 475.745C177.333 458.012 171.599 439.878 177.199 422.678C179.866 415.078 184.266 407.345 187.733 404.412C190.666 402.012 197.599 403.878 219.199 413.345C228.399 417.345 249.733 425.078 266.533 430.545C314.399 446.012 316.533 446.812 322.533 452.945C325.466 455.878 339.466 471.745 353.733 488.012C367.999 504.412 380.533 518.145 381.599 518.545C384.533 519.745 387.866 517.212 388.266 513.478C388.533 510.945 383.199 504.012 363.866 481.612C323.333 434.812 326.399 437.212 289.866 425.745C255.333 414.812 237.066 408.412 224.933 402.812C213.866 397.745 193.866 390.812 190.799 391.078C189.866 391.078 187.333 391.745 184.933 392.412Z" fill="black"/>
</svg>
